<?xml version="1.0" encoding="utf-8"?>
<!-- Generator: Adobe Illustrator 26.0.3, SVG Export Plug-In . SVG Version: 6.00 Build 0)  -->
<svg version="1.1" id="Layer_1" xmlns="http://www.w3.org/2000/svg" xmlns:xlink="http://www.w3.org/1999/xlink" x="0px" y="0px"
	 viewBox="0 0 595.28 147.64" style="enable-background:new 0 0 595.28 147.64;" xml:space="preserve">
<style type="text/css">
	.st0{fill:#033F85;}
</style>
<g>
	<g>
		<g>
			<path class="st0" d="M23.39,117.08l6.93-23.2h27.39l6.49,23.2h25.38L64.36,28.56c-1.45-5.22-4.61-7.64-10.11-7.64h-35.9v8.36
				h3.02c3.75,0,5.78,1.46,5.78,4.33c0,1.88-0.42,3.46-1.91,7.77L0,117.08H23.39z M54.25,78.14H33.92l10.82-35.31L54.25,78.14z"/>
			<path class="st0" d="M118.8,117.08V28.29c0-4.62-2.71-7.37-7.2-7.37H89.41v8.36h1.45c3.74,0,5.32,1.59,5.32,5.37v82.43H118.8z"/>
			<path class="st0" d="M157.28,117.08V28.29c0-4.62-2.75-7.37-7.21-7.37h-22.19v8.36h1.41c3.77,0,5.35,1.59,5.35,5.37v82.43H157.28
				z"/>
			<path class="st0" d="M196.33,117.08V52.35c0-4.61-2.75-7.34-7.22-7.34h-21.9v8.2h1.29c3.75,0,5.33,1.72,5.33,5.48v58.39H196.33z
				 M196.75,29.69c0-6.45-4.77-10.35-12.97-10.35c-8.07,0-13,3.9-13,10.35c0,6.52,4.93,10.39,13,10.39
				C191.98,40.08,196.75,36.22,196.75,29.69"/>
			<path class="st0" d="M215.44,65.64c7.51-3.6,15.73-5.63,22.21-5.63c6.07,0,8.24,2.16,8.24,8.47v1.61
				c-9.22,1.46-12.1,2.05-17.31,3.19c-3,0.71-5.78,1.56-8.52,2.73c-9.1,3.65-13.39,10.67-13.39,21.47c0,13.69,5.9,20.32,18.15,20.32
				c4.47,0,8.51-0.85,12.13-2.28c3.16-1.4,5.04-2.59,9.66-6.19v1c0,4.46,2.29,6.76,6.78,6.76H274v-7.76h-1.02
				c-3.88,0-5.32-1.75-5.32-6.34V68.65c0-18.3-6.35-24.67-24.68-24.67c-5.9,0-11.66,0.75-17.27,2.04
				c-5.65,1.28-8.55,2.44-15.28,5.77L215.44,65.64z M245.88,82.46v14.01c-3.76,3.89-8.36,6.23-12.24,6.23
				c-4.06,0-5.48-1.99-5.48-7.39c0-5.34,1.13-7.76,5.17-9.33C236.35,84.66,240.25,83.52,245.88,82.46"/>
			<path class="st0" d="M306.82,117.08V68.35c3.77-4.19,7.64-6.07,12.12-6.07c4.77,0,5.91,1.89,5.91,9.14v45.67h22.49v-49
				c0-11.41-0.83-15.01-4.45-18.88c-3.03-3.34-7.64-5.05-13.58-5.05c-8.8,0-14.99,2.73-23.32,10.52v-2.88
				c0-4.49-2.34-6.78-6.95-6.78h-21.36v8.2h1.3c3.75,0,5.35,1.72,5.35,5.48v58.39H306.82z"/>
			<path class="st0" d="M414.07,101.95h-31.43l29.99-42.07V45h-46.99c-5.34,0-7.79,2.44-7.79,7.79v13.1h8.36v-1.29
				c0-3.31,1.73-4.9,5.31-4.9h16.17l-30.28,42.54v14.84h56.65V101.95z"/>
		</g>
		<g>
			<path class="st0" d="M595.28,73.83C595.28,31.61,563.7,0,521.46,0c-42.26,0-73.83,31.61-73.83,73.83
				c0,42.27,31.57,73.81,73.83,73.81C563.7,147.64,595.28,116.1,595.28,73.83 M582.73,73.83c0,35.9-25.81,62-61.28,62
				c-35.47,0-61.28-26.1-61.28-62c0-35.91,25.81-62.01,61.28-62.01C556.92,11.82,582.73,38.08,582.73,73.83 M501.41,115.24V43.12
				h-12.55c-6.21,0-8.64,2.3-8.64,8.67v63.45H501.41z M541.52,115.24h21.18V51.79c0-6.37-2.46-8.67-8.67-8.67h-12.51V115.24z
				 M532.11,115.24V33.77c0-6.49-2.3-8.68-8.61-8.68h-19.07v9.1h1.14c4.35,0,5.2,0.98,5.2,6.22v74.83H532.11z"/>
		</g>
	</g>
</g>
</svg>
