<?xml version="1.0" encoding="UTF-8" standalone="no"?><!DOCTYPE svg PUBLIC "-//W3C//DTD SVG 1.1//EN" "http://www.w3.org/Graphics/SVG/1.1/DTD/svg11.dtd"><svg width="100%" height="100%" viewBox="0 0 3699 983" version="1.1" xmlns="http://www.w3.org/2000/svg" xmlns:xlink="http://www.w3.org/1999/xlink" xml:space="preserve" xmlns:serif="http://www.serif.com/" style="fill-rule:evenodd;clip-rule:evenodd;stroke-linejoin:round;stroke-miterlimit:2;"><path d="M0.064,330.505c-0.873,-44.791 7.239,-87.187 24.401,-127.187c17.122,-39.987 40.651,-74.935 70.507,-104.831c29.883,-29.831 65.039,-53.568 105.482,-71.172c40.417,-17.578 83.451,-26.38 129.167,-26.38l-0,136.849c-26.406,-0 -51.25,5.052 -74.57,15.169c-23.321,10.143 -43.79,23.737 -61.394,40.873c-17.617,17.135 -31.458,37.643 -41.575,61.341c-10.13,23.763 -15.17,48.802 -15.17,75.182l0,329.714l-136.848,-0l-0,-329.558Z" style="fill:#0098c4;fill-rule:nonzero;"/><path d="M1421.37,523.268c27.226,0 51.809,-4.609 73.75,-13.854c21.966,-9.206 41.731,-21.758 59.296,-37.552l98.789,94.818l-2.617,2.63c-29.01,28.047 -63.242,50.234 -102.747,66.432c-39.557,16.211 -81.693,24.323 -126.471,24.323c-44.805,0 -87.136,-8.503 -127.136,-25.677c-39.961,-17.135 -74.87,-40.625 -104.7,-70.495c-29.805,-29.87 -53.49,-64.765 -71.042,-104.7c-17.513,-40 -26.302,-82.826 -26.302,-128.49c-0,-45.69 8.789,-88.737 26.302,-129.127c17.552,-40.443 41.237,-75.521 71.042,-105.404c29.83,-29.857 64.739,-53.346 104.7,-70.534c40,-17.07 82.331,-25.638 127.136,-25.638c44.778,0 86.914,8.086 126.471,24.323c39.505,16.25 73.737,38.359 102.747,66.432l2.617,2.63l-98.789,94.831c-17.565,-15.807 -37.33,-28.307 -59.296,-37.539c-21.941,-9.219 -46.524,-13.854 -73.75,-13.854c-26.329,-0 -51.172,5.065 -74.441,15.182c-23.281,10.104 -43.684,23.985 -61.276,41.524c-17.552,17.617 -31.38,38.242 -41.471,61.979c-10.13,23.763 -15.143,48.789 -15.143,75.195c-0,26.341 5.013,51.224 15.143,74.518c10.091,23.295 23.919,43.698 41.471,61.328c17.592,17.605 37.995,31.42 61.276,41.537c23.269,10.117 48.112,15.182 74.441,15.182" style="fill:#009cc4;fill-rule:nonzero;"/><path d="M2255.92,982.888l-101.471,-92.266l-0,-2.669c21.966,-18.398 39.518,-40.872 52.708,-67.2c13.151,-26.342 19.726,-54.532 19.726,-84.388l0,-142.37c-28.072,21.198 -58.802,37.487 -92.109,48.906c-33.346,11.484 -68.437,17.162 -105.273,17.162c-45.612,-0 -88.607,-8.79 -128.959,-26.42c-40.351,-17.604 -75.442,-41.393 -105.286,-71.328c-29.831,-30 -53.516,-65.169 -71.068,-105.534c-17.552,-40.416 -26.302,-83.867 -26.302,-130.429l0,-9.219c0,-6.146 0.456,-12.487 1.445,-19.076c0.938,-6.627 1.433,-12.539 1.433,-17.799c7.877,-48.281 24.088,-92.63 48.593,-133.034l109.037,85.625c-15.807,26.302 -23.672,57.513 -23.672,93.503c-0,27.226 5.026,52.734 15.13,76.419c10.091,23.711 24.115,44.336 42.11,61.901c17.955,17.539 38.828,31.419 62.513,41.51c23.698,10.065 48.684,15.13 75.026,15.13c27.187,0 52.617,-5.065 76.315,-15.13c23.685,-10.091 44.518,-23.854 62.5,-41.445c17.982,-17.552 32.265,-38.177 42.786,-61.901c10.547,-23.659 15.781,-49.076 15.781,-76.328c0,-21.901 -3.268,-41.862 -9.856,-59.87c-6.576,-17.982 -15.586,-34.87 -26.993,-50.677l106.784,-86.836c21.107,28.086 37.344,58.646 48.841,91.562c11.407,32.943 17.11,68.295 17.11,106.029l-0,409.805c-0,48.294 -9.466,93.737 -28.333,136.393c-18.92,42.552 -45.105,79.232 -78.516,109.974" style="fill:#0099c4;fill-rule:nonzero;"/><path d="M677.281,265.922l-43.398,67.422l42.773,68.815l125.521,-0l219.036,-219.948l-0.26,-0.26l1.653,-0.769l-1.653,-3.346c-15.729,-30.729 -36.849,-58.451 -62.656,-83.516l0.117,-0.078l-2.669,-2.643c-1.224,-1.25 -2.618,-2.24 -3.868,-3.451c-2.291,-2.07 -4.362,-4.336 -6.718,-6.38c-1.914,-1.666 -3.998,-3.086 -5.977,-4.739c-4.44,-3.672 -8.958,-7.24 -13.62,-10.717c-3.437,-2.591 -6.979,-5.156 -10.534,-7.591c-5.143,-3.489 -10.403,-6.849 -15.794,-10.091c-3.633,-2.174 -7.279,-4.336 -11.029,-6.393c-5.625,-3.086 -11.445,-6.016 -17.382,-8.867c-3.594,-1.693 -7.175,-3.412 -10.847,-4.987c-2.356,-1.042 -4.557,-2.253 -6.966,-3.216c-4.036,-1.68 -8.216,-2.904 -12.331,-4.349c-2.487,-0.938 -4.804,-2.045 -7.356,-2.93c-1.472,-0.469 -2.956,-0.794 -4.44,-1.263c-4.987,-1.576 -10.027,-2.995 -15.118,-4.375c-6.966,-1.888 -13.958,-3.659 -20.924,-5.104c-0.925,-0.195 -1.849,-0.326 -2.774,-0.508c-28.255,-5.612 -56.666,-7.643 -85.351,-5.469c-3.099,0.248 -6.055,0.782 -9.128,1.133c-2.76,0.247 -5.455,0.638 -8.203,1.016c-6.81,0.859 -13.633,1.784 -20.312,3.021c-5.717,1.054 -11.342,2.382 -17.006,3.71c-4.336,1.081 -8.684,2.123 -12.981,3.36c-5.873,1.68 -11.693,3.594 -17.474,5.638c-4.558,1.549 -9.076,3.19 -13.555,4.987c-2.201,0.911 -4.453,1.497 -6.628,2.487c-2.903,1.211 -5.599,2.708 -8.424,4.062c-2.669,1.185 -5.469,2.214 -8.112,3.503c-2.227,1.094 -4.349,2.435 -6.55,3.581c-4.166,2.161 -8.229,4.401 -12.252,6.692c-3.346,1.967 -6.641,3.92 -9.922,6.029c-21.563,13.333 -41.536,28.672 -59.453,46.589c-29.805,29.895 -53.49,65.026 -71.055,105.403c-17.5,40.404 -26.289,83.464 -26.289,129.141c0,45.703 8.789,88.502 26.289,128.45c17.565,39.987 41.25,74.909 71.055,104.753c29.844,29.857 64.752,53.333 104.713,70.482c39.961,17.148 82.318,25.703 127.136,25.703c44.752,-0 86.901,-8.086 126.445,-24.336c39.505,-16.211 73.763,-38.412 102.735,-66.471l2.669,-2.605l-98.815,-94.778c-17.578,15.807 -37.331,28.268 -59.297,37.487c-21.94,9.231 -46.524,13.854 -73.737,13.854c-26.354,-0 -51.185,-5.026 -74.466,-15.169c-23.269,-10.105 -43.685,-23.972 -61.263,-41.524c-17.539,-17.604 -31.368,-38.021 -41.472,-61.328c-10.104,-23.333 -15.156,-48.151 -15.156,-74.518c0,-26.38 5.052,-51.432 15.156,-75.195c6.992,-16.446 15.938,-31.329 26.537,-44.844c1.484,-1.914 3.021,-3.815 4.609,-5.69c2.123,-2.513 4.323,-4.922 6.615,-7.331c2.239,-2.318 4.479,-4.662 6.797,-6.888c2.161,-2.083 4.375,-4.063 6.601,-6.003c2.305,-2.057 4.662,-4.023 7.083,-5.976c2.709,-2.136 5.417,-4.206 8.217,-6.159c2.083,-1.484 4.166,-2.93 6.263,-4.31c3.138,-2.07 6.367,-4.063 9.674,-5.911c2.123,-1.25 4.271,-2.461 6.458,-3.62c2.982,-1.537 6.016,-2.982 9.102,-4.401c3.008,-1.42 6.029,-2.748 9.076,-3.985c2.252,-0.898 4.557,-1.771 6.822,-2.526c3.79,-1.341 7.579,-2.656 11.446,-3.737c2.213,-0.612 4.466,-1.198 6.732,-1.731c3.32,-0.834 6.692,-1.602 10.078,-2.279c4.974,-0.912 9.961,-1.771 15.052,-2.24c0.234,-0.026 0.482,-0.065 0.716,-0.117c6.354,-0.625 12.799,-0.924 19.323,-0.924c13.502,-0 26.406,1.119 38.646,3.45c0.13,0.026 0.234,0.026 0.312,0.052c3.854,0.716 7.5,1.719 11.198,2.656c3.685,1.003 7.383,1.993 11.068,3.204c1.406,0.455 2.825,0.989 4.206,1.484c4.075,1.445 7.994,3.008 11.888,4.648c13.085,5.795 25.078,13.243 36.614,21.368l-85.325,91.406l-77.891,-0Z" style="fill:#0099c4;fill-rule:nonzero;"/><path d="M3313.52,490.589c7.643,14.7 17.773,26.601 30.43,35.716c12.643,9.101 27.474,15.872 44.531,20.286c17.044,4.401 34.7,6.615 52.916,6.615c12.357,-0 25.573,-1.029 39.701,-3.099c14.115,-2.045 27.331,-6.029 39.674,-11.914c12.344,-5.86 22.644,-13.946 30.886,-24.232c8.216,-10.287 12.331,-23.372 12.331,-39.258c-0,-17.044 -5.43,-30.872 -16.315,-41.445c-10.886,-10.586 -25.118,-19.414 -42.774,-26.472c-17.63,-7.057 -37.617,-13.216 -59.974,-18.502c-22.344,-5.3 -44.961,-11.172 -67.904,-17.643c-23.528,-5.873 -46.445,-13.086 -68.776,-21.628c-22.369,-8.503 -42.356,-19.531 -59.987,-33.073c-17.643,-13.503 -31.914,-30.417 -42.773,-50.703c-10.885,-20.273 -16.328,-44.831 -16.328,-73.646c-0,-32.331 6.901,-60.404 20.729,-84.219c13.815,-23.815 31.888,-43.658 54.258,-59.531c22.331,-15.885 47.617,-27.63 75.846,-35.286c28.216,-7.631 56.446,-11.472 84.662,-11.472c32.916,0 64.505,3.685 94.791,11.029c30.3,7.357 57.201,19.258 80.716,35.729c23.503,16.458 42.175,37.474 56.003,63.06c13.815,25.56 20.729,56.589 20.729,93.047l-134.075,-0c-1.159,-18.815 -5.13,-34.414 -11.901,-46.745c-6.745,-12.357 -15.729,-22.057 -26.888,-29.101c-11.198,-7.071 -23.959,-12.045 -38.373,-15c-14.414,-2.93 -30.13,-4.415 -47.161,-4.415c-11.198,0 -22.37,1.198 -33.529,3.529c-11.185,2.357 -21.315,6.471 -30.443,12.357c-9.114,5.872 -16.601,13.229 -22.487,22.044c-5.885,8.815 -8.815,20 -8.815,33.516c0,12.344 2.344,22.357 7.071,29.987c4.687,7.63 13.945,14.7 27.773,21.159c13.802,6.484 32.917,12.955 57.318,19.414c24.401,6.471 56.289,14.7 95.69,24.687c11.771,2.357 28.073,6.615 48.958,12.787c20.86,6.172 41.589,16.041 62.175,29.544c20.586,13.542 38.372,31.628 53.372,54.258c14.987,22.63 22.474,51.588 22.474,86.875c0,28.789 -5.586,55.547 -16.758,80.247c-11.172,24.688 -27.773,46.016 -49.817,63.945c-22.045,17.943 -49.401,31.901 -82.019,41.901c-32.643,9.987 -70.429,14.987 -113.346,14.987c-34.701,0 -68.359,-4.283 -100.977,-12.799c-32.643,-8.516 -61.458,-21.888 -86.445,-40.13c-24.987,-18.203 -48.034,-39.401 -59.531,-69.662c-18.294,-48.216 -4.31,-7.435 -15.521,-42.942l128.425,-57.605c-0,21.159 3.815,39.102 11.458,53.803" style="fill:#445863;fill-rule:nonzero;"/><path d="M3119.12,461.467c17.618,-40.234 26.524,-83.402 26.524,-129.409c-0,-46.028 -8.906,-89.142 -26.524,-129.416c-17.806,-40.303 -41.739,-75.462 -71.753,-105.536c-30.173,-30.113 -65.399,-53.81 -105.702,-71.058c-40.289,-17.277 -82.987,-25.889 -128.171,-25.889c-46.134,-0 -89.24,8.612 -129.605,25.889c-8.905,3.786 -17.42,8.061 -25.707,12.427c33.466,4.148 62.785,11.529 74.358,24.545c4.389,4.925 15.487,17.745 7.056,89.4c23.329,-9.586 47.859,-14.534 73.688,-14.534c26.6,0 51.959,5.129 75.899,15.275c23.835,10.206 44.535,23.978 61.879,41.277c17.269,17.286 31.049,37.893 41.188,61.804c10.274,23.926 15.351,49.195 15.351,75.816c-0,26.578 -5.077,51.621 -15.351,75.116c-10.139,23.48 -23.919,43.861 -41.188,61.138c-12.411,12.367 -26.455,22.83 -42.221,31.578c-3.574,33.897 -4.948,63.753 -2.327,74.933c13.983,6.67 65.928,10.449 121.031,9.247c6.775,-5.704 13.438,-11.499 19.822,-17.738c30.014,-29.636 53.947,-64.591 71.753,-104.865" style="fill:#009ac4;fill-rule:nonzero;"/><path d="M2862.51,518.403c-15.85,4.132 -32.221,6.475 -49.233,6.475c-26.585,-0 -51.877,-5.084 -75.796,-15.283c-23.916,-10.222 -44.835,-23.932 -62.58,-41.285c-17.754,-17.277 -31.646,-37.66 -41.868,-61.132c-10.22,-23.501 -15.366,-48.545 -15.366,-75.121c0,-26.615 5.146,-51.885 15.366,-75.809c10.222,-23.918 24.114,-44.528 41.868,-61.812c5.091,-4.94 10.356,-9.428 15.893,-13.748c6.256,-39.375 9.867,-76.135 7.434,-89.016c-12.019,-6.126 -52.518,-11.348 -99.13,-13.19c-6.904,5.953 -13.78,12.034 -20.216,18.622c-29.68,30.074 -53.123,65.233 -70.393,105.536c-17.253,40.273 -25.896,83.388 -25.896,129.417c-0,46.006 8.643,89.172 25.896,129.408c17.27,40.274 40.713,75.229 70.393,104.873c29.682,29.651 64.636,53.123 105.001,70.385c40.372,17.246 83.478,25.866 129.612,25.866c45.184,-0 87.882,-8.62 128.17,-25.866c6.723,-2.886 13.024,-6.188 19.393,-9.406c-38.649,-2.214 -74.224,-8.393 -87.791,-22.504c-4.54,-4.723 -15.903,-16.756 -10.757,-86.41" style="fill:#435863;fill-rule:nonzero;"/><path d="M2699.59,92.204c-1.436,-1.647 -1.987,-2.937 -1.987,-2.937c0.265,0.603 0.401,1.524 0.627,2.409c0.74,0.392 1.496,0.8 2.031,1.2c-0,0 -0.325,-0.203 -0.671,-0.672" style="fill:#fff;fill-rule:nonzero;"/><path d="M2904.45,573.764c0,0 0.279,0.205 0.687,0.627c1.489,1.549 2.04,2.863 2.04,2.863" style="fill:#fff;fill-rule:nonzero;"/></svg>