<?xml version="1.0" encoding="UTF-8" standalone="no"?><!DOCTYPE svg PUBLIC "-//W3C//DTD SVG 1.1//EN" "http://www.w3.org/Graphics/SVG/1.1/DTD/svg11.dtd"><svg width="100%" height="100%" viewBox="0 0 1143 1142" version="1.1" xmlns="http://www.w3.org/2000/svg" xmlns:xlink="http://www.w3.org/1999/xlink" xml:space="preserve" xmlns:serif="http://www.serif.com/" style="fill-rule:evenodd;clip-rule:evenodd;stroke-linejoin:round;stroke-miterlimit:2;"><path d="M1097.11,795.103c30.366,-69.347 45.716,-143.75 45.716,-223.047c-0,-79.334 -15.35,-153.644 -45.716,-223.059c-30.69,-69.466 -71.94,-130.066 -123.672,-181.9c-52.006,-51.903 -112.721,-92.747 -182.187,-122.475c-69.441,-29.778 -143.034,-44.622 -220.913,-44.622c-79.515,-0 -153.812,14.844 -223.384,44.622c-15.35,6.525 -30.025,13.894 -44.309,21.419c57.681,7.15 108.215,19.871 128.162,42.306c7.566,8.487 26.694,30.584 12.163,154.087c40.209,-16.522 82.487,-25.05 127.006,-25.05c45.847,0 89.556,8.841 130.819,26.328c41.081,17.591 76.759,41.329 106.653,71.144c29.765,29.794 53.515,65.313 70.99,106.525c17.71,41.238 26.46,84.791 26.46,130.675c-0,45.81 -8.75,88.972 -26.46,129.469c-17.475,40.469 -41.225,75.597 -70.99,105.375c-21.391,21.316 -45.597,39.35 -72.772,54.428c-6.159,58.425 -8.528,109.885 -4.009,129.153c24.1,11.497 113.631,18.01 208.606,15.938c11.678,-9.832 23.162,-19.819 34.165,-30.572c51.732,-51.081 92.982,-111.328 123.672,-180.744" style="fill:#009ac4;fill-rule:nonzero;"/><path d="M654.819,893.238c-27.319,7.121 -55.535,11.159 -84.856,11.159c-45.822,-0 -89.416,-8.763 -130.641,-26.341c-41.222,-17.618 -77.278,-41.25 -107.863,-71.159c-30.6,-29.778 -54.543,-64.909 -72.162,-105.366c-17.616,-40.506 -26.484,-83.672 -26.484,-129.478c-0,-45.872 8.868,-89.428 26.484,-130.662c17.619,-41.225 41.562,-76.747 72.162,-106.538c8.775,-8.515 17.85,-16.25 27.394,-23.697c10.781,-67.865 17.006,-131.225 12.813,-153.425c-20.716,-10.559 -90.519,-19.559 -170.86,-22.734c-11.9,10.259 -23.75,20.741 -34.844,32.097c-51.156,51.834 -91.562,112.434 -121.328,181.9c-29.737,69.412 -44.634,143.725 -44.634,223.059c-0,79.297 14.897,153.697 44.634,223.047c29.766,69.416 70.172,129.663 121.328,180.756c51.16,51.107 111.407,91.563 180.979,121.316c69.584,29.725 143.881,44.581 223.396,44.581c77.879,0 151.472,-14.856 220.913,-44.581c11.588,-4.975 22.447,-10.666 33.425,-16.213c-66.616,-3.815 -127.931,-14.465 -151.316,-38.787c-7.825,-8.141 -27.409,-28.881 -18.54,-148.934" style="fill:#435863;fill-rule:nonzero;"/><path d="M374.006,158.647c-2.475,-2.838 -3.425,-5.063 -3.425,-5.063c0.457,1.041 0.691,2.629 1.082,4.154c1.274,0.675 2.578,1.378 3.5,2.068c-0,0 -0.56,-0.35 -1.157,-1.159" style="fill:#fff;fill-rule:nonzero;"/><path d="M727.106,988.656c0,0 0.481,0.353 1.185,1.082c2.565,2.668 3.515,4.934 3.515,4.934" style="fill:#fff;fill-rule:nonzero;"/></svg>